<mxfile host="app.diagrams.net" agent="Mozilla/5.0 (X11; Ubuntu; Linux x86_64; rv:133.0) Gecko/20100101 Firefox/133.0" version="25.0.3">
  <diagram name="Page-1" id="58cdce13-f638-feb5-8d6f-7d28b1aa9fa0">
    <mxGraphModel dx="1434" dy="766" grid="1" gridSize="10" guides="1" tooltips="1" connect="1" arrows="1" fold="1" page="1" pageScale="1" pageWidth="1100" pageHeight="850" background="none" math="0" shadow="0">
      <root>
        <mxCell id="0" />
        <mxCell id="1" parent="0" />
        <mxCell id="2a3bc250acf0617d-8" value="&lt;div&gt;&lt;font data-font-src=&quot;https://db.onlinewebfonts.com/t/17e268efa7d01d3f0d6c6c4d95f4326c.ttf&quot;&gt;cwt_cu&lt;/font&gt;&lt;/div&gt;" style="shape=umlFrame;whiteSpace=wrap;html=1;rounded=1;shadow=0;comic=0;labelBackgroundColor=none;strokeWidth=1;fontFamily=NewsGotT;fontSize=12;align=center;movable=1;resizable=1;rotatable=1;deletable=1;editable=1;locked=0;connectable=1;" parent="1" vertex="1">
          <mxGeometry x="40" y="50" width="460" height="230" as="geometry" />
        </mxCell>
        <mxCell id="8ndJ4Dx7o7mWH3u_3wzX-2" style="edgeStyle=orthogonalEdgeStyle;rounded=0;orthogonalLoop=1;jettySize=auto;html=1;exitX=0.5;exitY=0.118;exitDx=0;exitDy=0;entryX=0;entryY=0.5;entryDx=0;entryDy=0;exitPerimeter=0;fontFamily=NewsGotT;fontSize=12;" parent="1" source="382b91b5511bd0f7-1" target="8ndJ4Dx7o7mWH3u_3wzX-1" edge="1">
          <mxGeometry relative="1" as="geometry" />
        </mxCell>
        <mxCell id="382b91b5511bd0f7-1" value="" style="ellipse;html=1;shape=startState;fillColor=#000000;strokeColor=default;rounded=1;shadow=0;comic=0;labelBackgroundColor=none;fontFamily=NewsGotT;fontSize=12;fontColor=#000000;align=center;direction=south;" parent="1" vertex="1">
          <mxGeometry x="60" y="92.5" width="30" height="30" as="geometry" />
        </mxCell>
        <mxCell id="8ndJ4Dx7o7mWH3u_3wzX-15" style="edgeStyle=orthogonalEdgeStyle;rounded=0;orthogonalLoop=1;jettySize=auto;html=1;exitX=1;exitY=0.5;exitDx=0;exitDy=0;entryX=0;entryY=0.5;entryDx=0;entryDy=0;fontFamily=NewsGotT;fontSize=12;fontColor=default;" parent="1" source="8ndJ4Dx7o7mWH3u_3wzX-1" target="8ndJ4Dx7o7mWH3u_3wzX-10" edge="1">
          <mxGeometry relative="1" as="geometry" />
        </mxCell>
        <mxCell id="8ndJ4Dx7o7mWH3u_3wzX-16" value="&lt;font&gt;ifft_ready&lt;/font&gt;" style="edgeLabel;html=1;align=center;verticalAlign=middle;resizable=0;points=[];strokeColor=default;fontFamily=NewsGotT;fontSize=12;fontColor=default;fillColor=default;" parent="8ndJ4Dx7o7mWH3u_3wzX-15" vertex="1" connectable="0">
          <mxGeometry x="0.0209" y="-2" relative="1" as="geometry">
            <mxPoint y="-12" as="offset" />
          </mxGeometry>
        </mxCell>
        <mxCell id="8ndJ4Dx7o7mWH3u_3wzX-1" value="&lt;font data-font-src=&quot;https://db.onlinewebfonts.com/t/17e268efa7d01d3f0d6c6c4d95f4326c.ttf&quot;&gt;S_IDLE&lt;/font&gt;" style="ellipse;whiteSpace=wrap;html=1;fontFamily=NewsGotT;fontSize=12;" parent="1" vertex="1">
          <mxGeometry x="150" y="80" width="80" height="55" as="geometry" />
        </mxCell>
        <mxCell id="T45YvrZhQ5AWfYzkkiMV-3" value="&lt;font&gt;data_counter = N&lt;/font&gt;" style="edgeStyle=orthogonalEdgeStyle;rounded=0;orthogonalLoop=1;jettySize=auto;html=1;exitX=0.5;exitY=1;exitDx=0;exitDy=0;entryX=0.5;entryY=0;entryDx=0;entryDy=0;strokeColor=default;align=center;verticalAlign=middle;fontFamily=NewsGotT;fontSize=12;fontColor=default;labelBackgroundColor=default;endArrow=classic;" parent="1" source="8ndJ4Dx7o7mWH3u_3wzX-10" target="T45YvrZhQ5AWfYzkkiMV-1" edge="1">
          <mxGeometry x="-0.2308" relative="1" as="geometry">
            <mxPoint as="offset" />
          </mxGeometry>
        </mxCell>
        <mxCell id="8ndJ4Dx7o7mWH3u_3wzX-10" value="S_RECEIVE_DATA" style="ellipse;whiteSpace=wrap;html=1;fontFamily=NewsGotT;fontSize=12;" parent="1" vertex="1">
          <mxGeometry x="383" y="80" width="90" height="55" as="geometry" />
        </mxCell>
        <mxCell id="T45YvrZhQ5AWfYzkkiMV-4" value="&lt;font&gt;(counter_j = J1) &amp;amp; (!dl_busy)&lt;/font&gt;" style="edgeStyle=orthogonalEdgeStyle;rounded=0;orthogonalLoop=1;jettySize=auto;html=1;exitX=0;exitY=0.5;exitDx=0;exitDy=0;entryX=1;entryY=0.5;entryDx=0;entryDy=0;fontFamily=NewsGotT;fontSize=12;" parent="1" source="T45YvrZhQ5AWfYzkkiMV-1" target="T45YvrZhQ5AWfYzkkiMV-2" edge="1">
          <mxGeometry x="-0.0204" y="-9" relative="1" as="geometry">
            <mxPoint as="offset" />
          </mxGeometry>
        </mxCell>
        <mxCell id="T45YvrZhQ5AWfYzkkiMV-8" value="counter_j &lt;span lang=&quot;en&quot; class=&quot;NA6bn BxUVEf ILfuVd&quot;&gt;&lt;span class=&quot;hgKElc&quot;&gt;â‰  J1&lt;b&gt;&lt;br&gt;&lt;/b&gt;&lt;/span&gt;&lt;/span&gt;" style="edgeStyle=orthogonalEdgeStyle;shape=connector;rounded=0;orthogonalLoop=1;jettySize=auto;html=1;exitX=0.21;exitY=0.11;exitDx=0;exitDy=0;exitPerimeter=0;entryX=1;entryY=1;entryDx=0;entryDy=0;strokeColor=default;align=center;verticalAlign=middle;fontFamily=NewsGotT;fontSize=12;fontColor=default;labelBackgroundColor=default;endArrow=classic;curved=1;" parent="1" source="T45YvrZhQ5AWfYzkkiMV-1" target="8ndJ4Dx7o7mWH3u_3wzX-1" edge="1">
          <mxGeometry x="-0.1752" y="-26" relative="1" as="geometry">
            <mxPoint as="offset" />
          </mxGeometry>
        </mxCell>
        <mxCell id="T45YvrZhQ5AWfYzkkiMV-1" value="S_CHECK_J" style="ellipse;whiteSpace=wrap;html=1;fontFamily=NewsGotT;points=[[0,0.5,0,0,0],[0,1,0,0,0],[0.21,0.11,0,0,0],[0.5,0,0,0,0],[0.5,1,0,0,0],[1,0,0,0,0],[1,0.5,0,0,0],[1,1,0,0,0]];fontSize=12;" parent="1" vertex="1">
          <mxGeometry x="383" y="200" width="90" height="55" as="geometry" />
        </mxCell>
        <mxCell id="T45YvrZhQ5AWfYzkkiMV-5" value="data_counter = N*J1" style="edgeStyle=orthogonalEdgeStyle;rounded=0;orthogonalLoop=1;jettySize=auto;html=1;exitX=0.5;exitY=0;exitDx=0;exitDy=0;entryX=0.5;entryY=1;entryDx=0;entryDy=0;fontFamily=NewsGotT;fontSize=12;" parent="1" source="T45YvrZhQ5AWfYzkkiMV-2" target="8ndJ4Dx7o7mWH3u_3wzX-1" edge="1">
          <mxGeometry x="-0.0769" y="10" relative="1" as="geometry">
            <mxPoint as="offset" />
          </mxGeometry>
        </mxCell>
        <mxCell id="T45YvrZhQ5AWfYzkkiMV-2" value="S_SEND_RESULTS" style="ellipse;whiteSpace=wrap;html=1;fontFamily=NewsGotT;fontSize=12;" parent="1" vertex="1">
          <mxGeometry x="142.5" y="200" width="95" height="55" as="geometry" />
        </mxCell>
      </root>
    </mxGraphModel>
  </diagram>
</mxfile>
